<?xml version="1.0" encoding="UTF-8" standalone="no"?>
<svg
   xmlns:dc="http://purl.org/dc/elements/1.1/"
   xmlns:cc="http://creativecommons.org/ns#"
   xmlns:rdf="http://www.w3.org/1999/02/22-rdf-syntax-ns#"
   xmlns:svg="http://www.w3.org/2000/svg"
   xmlns="http://www.w3.org/2000/svg"
   xmlns:sodipodi="http://sodipodi.sourceforge.net/DTD/sodipodi-0.dtd"
   xmlns:inkscape="http://www.inkscape.org/namespaces/inkscape"
   width="210mm"
   height="297mm"
   viewBox="0 0 210 297"
   version="1.1"
   id="svg8"
   sodipodi:docname="esquilax_logo.svg"
   inkscape:version="1.0.1 (c497b03c, 2020-09-10)">
  <defs
     id="defs2" />
  <sodipodi:namedview
     id="base"
     pagecolor="#ffffff"
     bordercolor="#666666"
     borderopacity="1.0"
     inkscape:pageopacity="0.0"
     inkscape:pageshadow="2"
     inkscape:zoom="1.2368532"
     inkscape:cx="407.78478"
     inkscape:cy="303.94894"
     inkscape:document-units="mm"
     inkscape:current-layer="layer1"
     inkscape:document-rotation="0"
     showgrid="false"
     inkscape:window-width="1440"
     inkscape:window-height="807"
     inkscape:window-x="0"
     inkscape:window-y="23"
     inkscape:window-maximized="1" />
  <metadata
     id="metadata5">
    <rdf:RDF>
      <cc:Work
         rdf:about="">
        <dc:format>image/svg+xml</dc:format>
        <dc:type
           rdf:resource="http://purl.org/dc/dcmitype/StillImage" />
      </cc:Work>
    </rdf:RDF>
  </metadata>
  <g
     inkscape:label="Layer 1"
     inkscape:groupmode="layer"
     id="layer1">
    <path
       style="fill:#f00000;fill-opacity:1;stroke:#f40000;stroke-width:6.11152;stroke-linecap:round;stroke-linejoin:round;stroke-miterlimit:4;stroke-dasharray:none;stroke-opacity:1"
       d="m 361.76545,675.24391 c -7.38781,-24.33955 -9.86233,-31.32518 -12.72727,-35.92937 -2.09049,-3.35961 -2.0189,-3.4709 2.73891,-4.2581 4.12986,-0.68329 8.06661,-3.20838 10.39978,-6.67057 1.76741,-2.62265 5.18274,-14.72204 5.18274,-18.36071 0,-2.424 -2.56192,-4.03995 -5.31104,-3.34996 -1.94243,0.48751 -2.42682,1.64086 -5.15852,12.28237 -1.09691,4.27311 -3.45251,7.24448 -6.28869,7.93262 -1.23287,0.29912 -8.42663,0.8502 -15.98613,1.22462 -11.27145,0.55827 -16.04839,1.20962 -26.54836,3.61991 -16.73445,3.84144 -19.4332,3.34738 -21.21267,-3.88337 -0.47282,-1.92129 -1.6214,-2.81306 -6.56504,-5.09716 -3.29558,-1.52265 -6.17506,-3.24561 -6.39884,-3.82878 -0.22379,-0.58318 0.32595,-3.92877 1.22165,-7.43465 5.64282,-22.08676 13.62562,-38.11301 24.30274,-48.79012 7.92842,-7.92842 18.19905,-13.88735 31.35484,-18.1918 l 6.66486,-2.18068 14.04251,-16.30756 c 15.43841,-17.92861 19.03823,-21.54338 28.01742,-28.13373 18.69933,-13.72452 35.26273,-20.37758 50.92854,-20.45658 8.94387,-0.0451 16.63482,1.74434 17.53066,4.07886 1.39782,3.64265 -11.56457,20.7165 -24.26035,31.95533 -13.29144,11.76615 -28.65421,22.61974 -38.14225,26.947 -7.6362,3.48268 -11.6318,9.57786 -10.38037,15.83499 0.96498,4.82493 11.33868,19.20333 20.43681,28.32631 7.22016,7.23988 9.62305,9.09796 15.55641,12.0293 5.64564,2.78917 8.1328,3.54663 12.72424,3.87514 5.43882,0.38915 6.44956,0.15143 21.5125,-5.05959 8.69305,-3.00736 15.99651,-5.27698 16.2299,-5.04359 0.23339,0.2334 0.0183,3.46401 -0.47806,7.17913 -5.6302,42.14357 -32.2765,77.29842 -71.15466,93.8754 -6.70142,2.85737 -17.73238,6.27175 -20.19633,6.25131 -0.90444,-0.007 -3.02666,-5.93265 -8.03593,-22.43597 z m -31.05777,-92.01853 c 1.78817,-1.78817 2.02519,-2.59323 1.67587,-5.69233 -0.53944,-4.78591 -2.42304,-6.778 -6.40888,-6.778 -6.83465,0 -11.97628,3.79847 -11.97628,8.84769 0,4.43552 2.02766,5.70537 9.11019,5.70537 4.84954,0 5.76814,-0.25177 7.5991,-2.08273 z m 37.05619,-54.30228 c 3.11273,-1.71875 7.11483,-4.07102 8.89353,-5.22727 2.9635,-1.92642 6.87228,-3.57348 6.87228,-2.8958 0,0.15463 -1.26124,3.27167 -2.80276,6.92676 -1.54152,3.65508 -2.42361,6.64561 -1.9602,6.64561 1.09619,0 10.61351,-5.58496 15.27351,-8.96281 8.78682,-6.36922 17.5263,-15.29932 25.2465,-25.79716 l 2.57807,-3.50564 -7.24213,0.52307 c -13.31389,0.96161 -26.29121,6.02828 -37.46753,14.62825 -5.5212,4.24847 -21.92308,21.32048 -21.92308,22.8188 0,1.2051 3.97946,-0.43148 12.53181,-5.15381 z"
       id="path1109"
       transform="scale(0.26458333)" />
    <path
       id="path193"
       style="fill:none;stroke:#000000;stroke-width:2.11569;stroke-miterlimit:4;stroke-dasharray:none;stroke-opacity:1"
       d="m 116.05815,62.039648 c 4.44102,5.541331 7.09992,12.590449 7.09992,20.264727 0,17.837155 -14.3641,32.297025 -32.083111,32.297025 -17.719012,0 -32.083109,-14.45987 -32.083111,-32.297025 0,-17.837156 14.364098,-32.297028 32.083111,-32.297028 5.805595,0 11.251031,1.552311 15.949071,4.267115"
       sodipodi:nodetypes="cssssc"
       inkscape:export-xdpi="300"
       inkscape:export-ydpi="300" />
    <path
       style="fill:none;stroke:#040000;stroke-width:2;stroke-linecap:butt;stroke-linejoin:round;stroke-miterlimit:4;stroke-dasharray:none;stroke-opacity:1"
       d="m 122.68112,82.678732 -9.09145,3.10179 c 0,0 -5.81856,2.111401 -13.12557,-9.904827 -1.774711,-2.785646 2.36171,-4.052363 2.36171,-4.052363 9.2525,-5.031506 18.18899,-14.716104 16.41967,-17.167663 -2.83137,-2.018554 -10.01976,-3.089969 -20.234449,4.519885 -3.882691,2.892573 -6.555816,6.903228 -10.765094,11.487152 -9.207885,2.517497 -14.534847,7.740054 -17.332612,21.214437 0.906233,2.113881 1.559632,1.218836 3.623605,2.509717 0.428031,2.052162 1.107585,2.548791 3.62583,2.692309 l 6.441221,-1.458486 c 4.665756,-0.910054 6.493062,1.125923 7.737696,4.844447 l 4.241629,13.76629"
       id="path1018"
       sodipodi:nodetypes="cccccsccccccc"
       inkscape:export-xdpi="300"
       inkscape:export-ydpi="300" />
    <path
       style="fill:none;stroke:#000000;stroke-width:2;stroke-linecap:round;stroke-linejoin:miter;stroke-miterlimit:4;stroke-dasharray:none;stroke-opacity:1"
       d="m 87.3537,95.370575 c 0,0 4.565685,0.278657 6.428626,-0.756309 1.430479,-1.275286 1.139322,-1.480468 2.117667,-4.991639"
       id="path1044"
       sodipodi:nodetypes="ccc"
       inkscape:export-xdpi="300"
       inkscape:export-ydpi="300" />
    <path
       id="path1046"
       style="fill:#1d0000;fill-opacity:1;stroke:none;stroke-width:0.26458300000000001px;stroke-linecap:butt;stroke-linejoin:miter;stroke-opacity:1"
       d="m 85.791386,79.127828 c -0.08049,0.0033 -0.164711,0.01001 -0.252698,0.02015 -0.655468,0.117777 -1.310823,0.411367 -1.966288,0.831475 -0.521671,0.470122 -0.861457,1.070676 -0.681096,2.042252 0.302525,0.453782 0.681027,0.731152 1.134814,0.83199 0.962983,0.10708 1.810017,0.06944 2.571419,-0.07545 0.724943,-0.487423 1.257274,-1.080646 0.982888,-2.117699 -0.196443,-0.87758 -0.581629,-1.581864 -1.789039,-1.532723 z m 0.474906,0.568442 a 0.42542385,0.70903975 0 0 1 0.425813,0.708998 0.42542385,0.70903975 0 0 1 -0.425813,0.709001 0.42542385,0.70903975 0 0 1 -0.425296,-0.709001 0.42542385,0.70903975 0 0 1 0.425296,-0.708998 z"
       inkscape:export-xdpi="300"
       inkscape:export-ydpi="300" />
    <path
       style="fill:#0b0000;fill-opacity:1;stroke:none;stroke-width:0.26458300000000001px;stroke-linecap:butt;stroke-linejoin:miter;stroke-opacity:1"
       d="m 93.695434,69.496127 c 2.448084,-2.875496 7.850346,-10.25539 17.380716,-9.973858 -2.62836,3.384646 -5.04762,6.785691 -11.203878,9.893639 l 1.524158,-3.60984 c -0.29759,-0.09459 -0.72023,-0.06413 -1.443939,0.267396 -2.163257,1.528746 -4.23617,2.605769 -6.257057,3.422663 z"
       id="path1052"
       sodipodi:nodetypes="cccccc"
       inkscape:export-xdpi="300"
       inkscape:export-ydpi="300" />
    <path
       id="path193-7"
       style="fill:none;stroke:#010000;stroke-width:2.11569;stroke-miterlimit:4;stroke-dasharray:none;stroke-opacity:1"
       d="m 116.32555,133.96909 c 4.44102,5.54133 7.09991,12.59045 7.09991,20.26472 0,17.83716 -14.36409,32.29703 -32.083106,32.29703 -17.71901,0 -32.08311,-14.45987 -32.08311,-32.29703 0,-17.83715 14.3641,-32.29703 32.08311,-32.29703 5.8056,0 11.251026,1.55231 15.949066,4.26712"
       sodipodi:nodetypes="cssssc" />
    <path
       style="fill:none;stroke:#040000;stroke-width:2;stroke-linecap:butt;stroke-linejoin:round;stroke-miterlimit:4;stroke-dasharray:none;stroke-opacity:1"
       d="m 122.94852,154.60817 -9.09145,3.10179 c 0,0 -5.81857,2.1114 -13.12557,-9.90483 -1.774716,-2.78564 2.3617,-4.05236 2.3617,-4.05236 9.2525,-5.0315 18.18899,-14.71611 16.41968,-17.16767 -2.83137,-2.01855 -10.01976,-3.08997 -20.234446,4.51989 -3.8827,2.89258 -6.55582,6.90323 -10.7651,11.48716 -9.20788,2.51749 -14.53485,7.74005 -17.33261,21.21443 0.90623,2.11389 1.55963,1.21884 3.6236,2.50972 0.42804,2.05216 1.10759,2.54879 3.62583,2.69231 l 6.44123,-1.45848 c 4.66575,-0.91006 6.49306,1.12592 7.73769,4.84444 l 4.24163,13.76629"
       id="path1018-4"
       sodipodi:nodetypes="cccccsccccccc" />
    <path
       style="fill:none;stroke:#000000;stroke-width:2;stroke-linecap:round;stroke-linejoin:miter;stroke-miterlimit:4;stroke-dasharray:none;stroke-opacity:1"
       d="m 87.621104,167.30002 c 0,0 4.56568,0.27865 6.42862,-0.75631 1.43048,-1.27529 1.13932,-1.48047 2.11767,-4.99164"
       id="path1044-4"
       sodipodi:nodetypes="ccc" />
    <path
       id="path1046-9"
       style="fill:#1d0000;fill-opacity:1;stroke:none;stroke-width:0.264583px;stroke-linecap:butt;stroke-linejoin:miter;stroke-opacity:1"
       d="m 86.058784,151.05727 c -0.0805,0.003 -0.16471,0.01 -0.2527,0.0201 -0.65547,0.11778 -1.31082,0.41137 -1.96629,0.83148 -0.52167,0.47012 -0.86145,1.07067 -0.68109,2.04225 0.30252,0.45378 0.68103,0.73115 1.13481,0.83199 0.96299,0.10708 1.81002,0.0694 2.57142,-0.0755 0.72494,-0.48743 1.25728,-1.08065 0.98289,-2.1177 -0.19644,-0.87758 -0.58163,-1.58187 -1.78904,-1.53273 z m 0.47491,0.56844 a 0.42542386,0.70903976 0 0 1 0.42581,0.709 0.42542386,0.70903976 0 0 1 -0.42581,0.709 0.42542386,0.70903976 0 0 1 -0.4253,-0.709 0.42542386,0.70903976 0 0 1 0.4253,-0.709 z" />
    <path
       style="fill:#0b0000;fill-opacity:1;stroke:none;stroke-width:0.264583px;stroke-linecap:butt;stroke-linejoin:miter;stroke-opacity:1"
       d="m 93.962834,141.42557 c 2.44808,-2.8755 7.850336,-10.25539 17.380706,-9.97386 -2.62836,3.38464 -5.04762,6.78569 -11.20387,9.89364 l 1.52415,-3.60984 c -0.29759,-0.0946 -0.72023,-0.0641 -1.44393,0.26739 -2.163256,1.52875 -4.236176,2.60577 -6.257056,3.42267 z"
       id="path1052-1"
       sodipodi:nodetypes="cccccc" />
    <path
       style="fill:#f00000;fill-opacity:1;stroke:#f40000;stroke-width:1.61701;stroke-linecap:round;stroke-linejoin:round;stroke-miterlimit:4;stroke-dasharray:none;stroke-opacity:1"
       d="m 100.85111,247.32548 c -1.954694,-6.43984 -2.609414,-8.28812 -3.367424,-9.50631 -0.55311,-0.8889 -0.53417,-0.91834 0.72467,-1.12662 1.09269,-0.18079 2.134294,-0.84889 2.751604,-1.76492 0.46763,-0.69391 1.37127,-3.89521 1.37127,-4.85794 0,-0.64135 -0.67784,-1.06891 -1.40521,-0.88635 -0.51394,0.12899 -0.6421,0.43415 -1.364864,3.24971 -0.29022,1.1306 -0.91348,1.91677 -1.66388,2.09884 -0.3262,0.0791 -2.22955,0.22495 -4.22967,0.32402 -2.98223,0.14771 -4.24613,0.32004 -7.02425,0.95777 -4.42766,1.01638 -5.1417,0.88566 -5.61252,-1.02748 -0.1251,-0.50834 -0.429,-0.74429 -1.737,-1.34862 -0.87196,-0.40287 -1.63382,-0.85874 -1.69303,-1.01303 -0.0592,-0.1543 0.0862,-1.03949 0.32323,-1.96709 1.493,-5.84379 3.60511,-10.08407 6.4301,-12.90905 2.09773,-2.09773 4.81517,-3.67436 8.29597,-4.81325 l 1.76341,-0.57697 3.71542,-4.31471 c 4.084744,-4.74361 5.037194,-5.70002 7.412944,-7.44372 4.94753,-3.63127 9.32993,-5.39156 13.47484,-5.41247 2.3664,-0.0119 4.4013,0.46153 4.63832,1.0792 0.36984,0.96379 -3.05979,5.48124 -6.41888,8.45485 -3.5167,3.11313 -7.58143,5.98481 -10.09181,7.12973 -2.02041,0.92146 -3.07758,2.53414 -2.74647,4.18967 0.25532,1.2766 3.00003,5.08088 5.40724,7.49467 1.91033,1.91555 2.5461,2.40717 4.11597,3.18275 1.49374,0.73797 2.1518,0.93838 3.36662,1.0253 1.43902,0.10296 1.70644,0.0401 5.69185,-1.33868 2.30003,-0.7957 4.23241,-1.3962 4.29416,-1.33445 0.0617,0.0617 0.005,0.91652 -0.12649,1.89948 -1.48965,11.15048 -8.53982,20.45187 -18.82634,24.83786 -1.77308,0.75602 -4.69169,1.6594 -5.34361,1.654 -0.2393,-0.002 -0.8008,-1.56968 -2.12617,-5.93619 z m -8.217374,-24.34657 c 0.47312,-0.47312 0.53583,-0.68612 0.44341,-1.50609 -0.14273,-1.26628 -0.6411,-1.79335 -1.69568,-1.79335 -1.80834,0 -3.16873,1.00501 -3.16873,2.34095 0,1.17357 0.53649,1.50955 2.41041,1.50955 1.2831,0 1.52615,-0.0666 2.01059,-0.55106 z m 9.804454,-14.36748 c 0.82358,-0.45475 1.88247,-1.07712 2.35308,-1.38304 0.78409,-0.5097 1.81829,-0.94549 1.81829,-0.76618 0,0.0409 -0.3337,0.86562 -0.74156,1.8327 -0.40786,0.96707 -0.64125,1.75832 -0.51864,1.75832 0.29004,0 2.80816,-1.47769 4.04112,-2.37141 2.32484,-1.68519 4.63717,-4.04795 6.6798,-6.8255 l 0.68212,-0.92753 -1.91615,0.13839 c -3.52263,0.25443 -6.95622,1.59498 -9.91328,3.87039 -1.46082,1.12408 -5.800494,5.64105 -5.800494,6.03748 0,0.31885 1.052904,-0.11417 3.315714,-1.36362 z"
       id="path1109-5" />
    <path
       id="path193-7-5"
       style="fill:none;stroke:#010000;stroke-width:2.11569;stroke-miterlimit:4;stroke-dasharray:none;stroke-opacity:1;fill-opacity:1"
       d="m 121.45955,202.63629 c 4.44102,5.54133 7.09991,12.59045 7.09991,20.26472 0,17.83716 -14.36409,32.29703 -32.083114,32.29703 -17.71901,0 -32.083106,-14.45987 -32.083106,-32.29703 0,-17.83715 14.364096,-32.29703 32.083106,-32.29703 5.805614,0 11.251034,1.55231 15.949074,4.26712"
       sodipodi:nodetypes="cssssc" />
    <path
       style="fill:none;stroke:#040000;stroke-width:2;stroke-linecap:butt;stroke-linejoin:round;stroke-miterlimit:4;stroke-dasharray:none;stroke-opacity:1"
       d="m 128.08252,223.27537 -9.09145,3.10179 c 0,0 -5.81857,2.1114 -13.12557,-9.90483 -1.77472,-2.78564 2.3617,-4.05236 2.3617,-4.05236 9.2525,-5.0315 18.18899,-14.71611 16.41968,-17.16767 -2.83137,-2.01855 -10.01976,-3.08997 -20.23444,4.51989 -3.8827,2.89258 -6.555834,6.90323 -10.765114,11.48716 -9.20788,2.51749 -14.53485,7.74005 -17.33261,21.21443 0.90623,2.11389 1.55963,1.21884 3.6236,2.50972 0.42804,2.05216 1.10759,2.54879 3.62583,2.69231 l 6.44123,-1.45848 c 4.66576,-0.91006 6.49306,1.12592 7.7377,4.84444 l 4.241624,13.76629"
       id="path1018-4-8"
       sodipodi:nodetypes="cccccsccccccc" />
    <path
       style="fill:none;stroke:#000000;stroke-width:2;stroke-linecap:round;stroke-linejoin:miter;stroke-miterlimit:4;stroke-dasharray:none;stroke-opacity:1"
       d="m 92.755106,235.96722 c 0,0 4.56567,0.27865 6.42861,-0.75631 1.430484,-1.27529 1.139334,-1.48047 2.117684,-4.99164"
       id="path1044-4-2"
       sodipodi:nodetypes="ccc" />
    <path
       id="path1046-9-9"
       style="fill:#1d0000;fill-opacity:1;stroke:none;stroke-width:0.264583px;stroke-linecap:butt;stroke-linejoin:miter;stroke-opacity:1"
       d="m 91.192786,219.72447 c -0.0805,0.003 -0.16472,0.01 -0.2527,0.0201 -0.65548,0.11778 -1.31083,0.41137 -1.9663,0.83148 -0.52167,0.47012 -0.86145,1.07067 -0.68109,2.04225 0.30252,0.45378 0.68103,0.73115 1.13481,0.83199 0.963,0.10708 1.81002,0.0694 2.57142,-0.0755 0.72494,-0.48743 1.25729,-1.08065 0.98289,-2.1177 -0.19644,-0.87758 -0.58163,-1.58187 -1.78903,-1.53274 z m 0.4749,0.56844 a 0.42542386,0.70903976 0 0 1 0.42581,0.709 0.42542386,0.70903976 0 0 1 -0.42581,0.709 0.42542386,0.70903976 0 0 1 -0.42529,-0.709 0.42542386,0.70903976 0 0 1 0.42529,-0.709 z" />
    <path
       style="fill:#0b0000;fill-opacity:1;stroke:none;stroke-width:0.264583px;stroke-linecap:butt;stroke-linejoin:miter;stroke-opacity:1"
       d="m 99.096826,210.09277 c 2.448094,-2.8755 7.850344,-10.25539 17.380714,-9.97386 -2.62836,3.38464 -5.04762,6.78569 -11.20387,9.89364 l 1.52415,-3.60984 c -0.29759,-0.0946 -0.72023,-0.0641 -1.44393,0.26739 -2.16326,1.52875 -4.23618,2.60577 -6.257064,3.42267 z"
       id="path1052-1-8"
       sodipodi:nodetypes="cccccc" />
  </g>
</svg>
